<svg version="1.1" viewBox="0.0 0.0 960.0 540.0" fill="none" stroke="none" stroke-linecap="square" stroke-miterlimit="10" xmlns:xlink="http://www.w3.org/1999/xlink" xmlns="http://www.w3.org/2000/svg"><clipPath id="p.0"><path d="m0 0l960.0 0l0 540.0l-960.0 0l0 -540.0z" clip-rule="nonzero"/></clipPath><g clip-path="url(#p.0)"><path fill="#ffffff" d="m0 0l960.0 0l0 540.0l-960.0 0z" fill-rule="evenodd"/><path fill="#131313" d="m-108.66929 -71.00787l1262.5511 0l0 682.01575l-1262.5511 0z" fill-rule="evenodd"/><path stroke="#595959" stroke-width="1.0" stroke-linejoin="round" stroke-linecap="butt" d="m-108.66929 -71.00787l1262.5511 0l0 682.01575l-1262.5511 0z" fill-rule="evenodd"/><path fill="#d9d9d9" d="m491.37402 353.28687l104.24719 37.90808l-115.077515 77.84796l-134.7063 -38.58661z" fill-rule="evenodd"/><defs><radialGradient id="p.1" gradientUnits="userSpaceOnUse" gradientTransform="matrix(16.982857411700238 0.0 0.0 16.982857411700238 0.0 0.0)" spreadMethod="pad" cx="16.542656968955217" cy="13.787397868168812" fx="16.542656968955217" fy="13.787397868168812" r="16.98285675048828"><stop offset="0.0" stop-color="#ff7eb1"/><stop offset="0.83" stop-color="#ead1dc"/><stop offset="1.0" stop-color="#ff5599"/></radialGradient></defs><path fill="url(#p.1)" d="m431.89154 234.14941l61.600586 118.46268l-144.86188 76.490906l-67.68866 -130.64633z" fill-rule="evenodd"/><path fill="#b9b9b9" d="m425.97214 443.34476l113.73544 -64.80209l-43.640015 -13.22583l-125.63794 63.47876z" fill-rule="evenodd"/><path fill="#e6af8a" d="m422.19864 382.6214l6.4217224 1.3270569l2.8790894 1.9943848l3.7638245 -3.5463867l5.537018 -0.8847046l3.3214417 0.6635132l5.090912 4.2099304l29.233276 18.380463l6.8640747 4.427368l6.642914 9.743164l1.9906311 6.864105l-1.105896 6.6428833l-3.3214722 13.507019l-2.2155457 4.8734436l1.4957886 9.46579l5.6532288 12.194885l12.104919 14.17804l8.644775 7.9549866l24.206116 -31.816223l21.788147 -34.582855l88.17224 73.31564l-11.358948 20.018707l-5.953125 8.656006l-7.032776 4.869751l-179.62091 -1.083435l-1.0796509 -27.591309l-0.5435791 -21.102081l2.166809 -23.805023l-6.4929504 0l-18.935303 -10.819092l-6.290497 -6.717865l-3.3214722 -5.094635l-1.3270569 -5.090912l-5.97937 -6.4217224l-6.642914 -4.2099304l-1.105896 -3.1002808l5.3120728 -9.522003l0.22116089 -3.9849854l-0.22116089 -4.648529l8.416107 -10.852844z" fill-rule="evenodd"/><path fill="#e6af8a" d="m487.62305 349.48932l7.4451294 -5.4920044l3.8987732 -4.96344l2.1255798 -2.6579285l5.3158264 -0.5323181l18.605377 1.0646667l11.520142 -0.7085266l4.6073 -1.0646667l13.469482 2.657898l12.048706 3.542633l15.238953 6.204315l40.757202 -2.8341064l-27.820007 33.491943l-13.289551 -1.2408752l-13.645691 5.6719666l-13.113403 4.6073l-15.595093 1.7694397l-7.973755 -0.8847046l-8.5060425 -3.7225952l-5.8481445 0.35614014l-5.848175 0.7085266l-13.645691 -1.5969849l-6.909088 -2.8341064l-0.17993164 -3.1902466l0 -2.8341064l-5.4920044 0l-3.7225952 0.7085266l-2.3017578 -3.1902466l1.9493713 -9.2146l4.7835083 -11.340179z" fill-rule="evenodd"/><path fill="#e6af8a" d="m802.8696 239.58214l-16.247375 -10.830338l-8.798523 -14.894058l-7.4451294 -27.073975l-2.7103882 -29.109573l3.3851929 -18.275497l-4.0599976 -35.20141l-12.862183 -47.385067l-8.123718 -15.568848l-27.752502 -12.862196l-32.490967 -6.091831l-40.61847 4.7385063l-33.84436 14.894056l-23.692505 11.508877l-14.89032 18.95028l-6.7703857 14.894058l2.0318604 31.137688l7.4451904 28.431046l8.123657 10.155548l6.7666016 16.922165l4.0637207 15.568848l-2.144287 4.247406l13.645691 23.216446l13.544495 30.751556l29.784363 -6.7703705l12.862183 22.339203l20.982117 25.720673l9.477051 21.664398l101.54053 -12.862183z" fill-rule="evenodd"/><path fill="#212529" d="m585.05945 371.17636l-4.887451 14.564148l-13.585388 32.89917l-25.540405 40.45221l-1.6304321 11.865845l8.152039 14.022247l20.64917 18.338776l34.23462 12.945892l30.427795 9.705688l-10.324585 12.407776l223.34198 1.6182251l114.11664 -2.1601562l-11.412781 -75.50781l-9.23645 -53.3981l-20.106995 -117.57828l-5.975586 -19.418854l-10.324646 -23.189758l-19.564758 -7.5530243l-38.037598 -3.774643l-48.908203 -3.2364807l-7.606018 12.945908l-29.889404 26.426254l-41.840576 18.338776l-28.801208 8.629364l-4.348999 7.0111084l-64.12018 35.059326l-30.973816 18.876953z" fill-rule="evenodd"/><path fill="#212529" d="m674.40405 219.7344l32.11615 4.228668l27.891235 5.068405l68.45715 -33.806854l-11.831299 -21.128342l-1.6906738 -61.694313l-16.903442 -76.90702l-38.03174 -24.50978l-59.160156 -10.987788l-78.60144 24.509779l-29.578186 32.11613l-16.059937 49.863037l10.144287 26.2005l43.947388 3.3776855l27.044006 10.144302l26.2005 9.297073l5.0683594 43.100174z" fill-rule="evenodd"/></g></svg>